<?xml version="1.0" encoding="utf-8"?>
<!-- Generator: Adobe Illustrator 25.0.0, SVG Export Plug-In . SVG Version: 6.00 Build 0)  -->
<svg version="1.1" id="图层_1" xmlns="http://www.w3.org/2000/svg" xmlns:xlink="http://www.w3.org/1999/xlink" x="0px" y="0px"
	 viewBox="0 0 23 23" style="enable-background:new 0 0 23 23;" xml:space="preserve">
<style type="text/css">
	.st0{fill:#B0B0B0;}
</style>
<desc>Created with Sketch.</desc>
<path class="st0" d="M22.9,7.5l-3-6.6c-0.3-0.7-0.9-0.7-1.3-0.1l-1.1,1.6C14,0,9.2-0.1,5.4,2.5C1.9,4.9,0.3,8.9,0.9,12.9
	c1,0,3.5,0,3.8,0c-0.6-2.7,0.4-5.6,2.8-7.3c1.8-1.3,5.2-1.4,7.8,0.3l-1.1,1.6c-0.4,0.6-0.1,1.1,0.6,1.1l7.2,0
	C22.8,8.7,23.2,8.2,22.9,7.5z"/>
<path class="st0" d="M18.3,10.5c0.4,2.6-0.6,5.3-2.9,6.9c-1.8,1.3-5.2,1.4-7.8-0.3l1.1-1.6c0.4-0.6,0.1-1.1-0.6-1.1l-7.2,0
	c-0.7,0-1.1,0.5-0.8,1.2l3,6.6c0.3,0.7,0.9,0.7,1.3,0.1l1.1-1.6c3.6,2.4,8.4,2.6,12.2,0c3.4-2.3,5-6.2,4.6-10L18.3,10.5L18.3,10.5z"
	/>
</svg>
