<?xml version="1.0" encoding="UTF-8"?>
<svg width="20px" height="20px" viewBox="0 0 20 20" version="1.1" xmlns="http://www.w3.org/2000/svg" xmlns:xlink="http://www.w3.org/1999/xlink">
    <title>ic_dashboard_bl</title>
    <g id="页面-1" stroke="none" stroke-width="1" fill="none" fill-rule="evenodd">
        <g id="ic_dashboard_bl" fill="#50B5FF">
            <path d="M4,10 L5,10 C7.209139,10 9,11.790861 9,14 L9,16 C9,18.209139 7.209139,20 5,20 L4,20 C1.790861,20 0,18.209139 0,16 L0,14 C0,11.790861 1.790861,10 4,10 Z M4,12 C2.8954305,12 2,12.8954305 2,14 L2,16 C2,17.1045695 2.8954305,18 4,18 L5,18 C6.1045695,18 7,17.1045695 7,16 L7,14 C7,12.8954305 6.1045695,12 5,12 L4,12 Z M3.5,0 C5.43299662,0 7,1.56700338 7,3.5 L7,4.5 C7,6.43299662 5.43299662,8 3.5,8 C1.56700338,8 0,6.43299662 0,4.5 L0,3.5 C0,1.56700338 1.56700338,0 3.5,0 Z M3.5,2 C2.67157288,2 2,2.67157288 2,3.5 L2,4.5 C2,5.32842712 2.67157288,6 3.5,6 C4.32842712,6 5,5.32842712 5,4.5 L5,3.5 C5,2.67157288 4.32842712,2 3.5,2 Z M15,9 L16,9 C18.209139,9 20,10.790861 20,13 L20,16 C20,18.209139 18.209139,20 16,20 L15,20 C12.790861,20 11,18.209139 11,16 L11,13 C11,10.790861 12.790861,9 15,9 Z M15,11 C13.8954305,11 13,11.8954305 13,13 L13,16 C13,17.1045695 13.8954305,18 15,18 L16,18 C17.1045695,18 18,17.1045695 18,16 L18,13 C18,11.8954305 17.1045695,11 16,11 L15,11 Z M12.5,0 L16.5,0 C18.4329966,0 20,1.56700338 20,3.5 C20,5.43299662 18.4329966,7 16.5,7 L12.5,7 C10.5670034,7 9,5.43299662 9,3.5 C9,1.56700338 10.5670034,0 12.5,0 Z M12.5,2 C11.6715729,2 11,2.67157288 11,3.5 C11,4.32842712 11.6715729,5 12.5,5 L16.5,5 C17.3284271,5 18,4.32842712 18,3.5 C18,2.67157288 17.3284271,2 16.5,2 L12.5,2 Z" id="Shape"></path>
        </g>
    </g>
</svg>